# AST/ASF file generated using VICON BodyLanguage
# -----------------------------------------------
:version 1.10
:name VICON
:units
  mass 1.0
  length 0.45
  angle deg
:documentation
   .ast/.asf automatically generated from VICON data using
   VICON BodyBuilder and BodyLanguage model FoxedUp or BRILLIANT.MOD
:root
   order TX TY TZ RX RY RZ
   axis XYZ
   position 0 0 0  
   orientation 0 -0 0 
:bonedata
  begin
     id 1 
     name lhipjoint
     direction 0.515797 -0.759363 0.396637 
     length 2.47888 
     axis 0 -0 0  XYZ
  end
  begin
     id 2 
     name lfemur
     direction 0.34202 -0.939693 0  
     length 6.81885  
     axis 0 -0 20  XYZ
    dof rx ry rz
    limits (-160.0 20.0)
           (-70.0 70.0)
           (-60.0 70.0)
  end
  begin
     id 3 
     name ltibia
     direction 0.342037 -0.939687 0   
     length 7.89258   
     axis 0 -0 20   XYZ
    dof rx
    limits (-10.0 170.0)
  end
  begin
     id 4 
     name lfoot
     direction 0.173497 -0.476678 0.861787   
     length 2.51543   
     axis -90 -1.13533e-015 20   XYZ
    dof rx rz
    limits (-45.0 90.0)
           (-70.0 20.0)
  end
  begin
     id 5 
     name ltoes
     direction 1.53564e-011 -4.21897e-011 1   
     length 1.21388   
     axis -90 -1.13533e-015 20   XYZ
    dof rx
    limits (-90.0 20.0)
  end
  begin
     id 6 
     name rhipjoint
     direction -0.489454 -0.772941 0.403729   
     length 2.43534  
     axis 0 -0 0  XYZ 
  end
  begin
     id 7 
     name rfemur
     direction -0.34202 -0.939693 0   
     length 7.10357   
     axis 0 -0 -20   XYZ
    dof rx ry rz
    limits (-160.0 20.0)
           (-70.0 70.0)
           (-70.0 60.0)
  end
  begin
     id 8 
     name rtibia
     direction -0.34202 -0.939693 0   
     length 9.16127   
     axis 0 -0 -20   XYZ
    dof rx
    limits (-10.0 170.0)
 end
 begin
     id 9 
     name rfoot
     direction -0.270974 -0.748671 0.605033   
     length 1.74894  
     axis -90 1.13533e-015 -20   XYZ
    dof rx rz
    limits (-45.0 90.0)
           (-20.0 70.0)
  end
  begin
     id 10 
     name rtoes
     direction -1.53557e-011 -4.21759e-011 1   
     length 0.787585   
     axis -90 1.13533e-015 -20   XYZ
    dof rx
    limits (-90.0 20.0)
  end
  begin
     id 11 
     name lowerback
     direction -0.0140249 0.999561 0.0260968   
     length 2.16963   
     axis 0 -0 0   XYZ
    dof rx ry rz
    limits (-20.0 45.0)
           (-30.0 30.0)
           (-30.0 30.0)
  end
  begin
     id 12 
     name upperback
     direction 0.00860018 0.999959 -0.002711   
     length 2.1726   
     axis 0 -0 0   XYZ
    dof rx ry rz
    limits (-20.0 45.0)
           (-30.0 30.0)
           (-30.0 30.0)
  end
  begin
     id 13 
     name thorax
     direction 0.015211 0.999782 -0.0143191   
     length 2.17061   
     axis 0 -0 0   XYZ
    dof rx ry rz
    limits (-20.0 45.0)
           (-30.0 30.0)
           (-30.0 30.0)
  end
  begin
     id 14 
     name lowerneck
     direction -0.0140143 0.999447 0.030145   
     length 2.26749   
     axis 0 -0 0   XYZ
    dof rx ry rz
    limits (-20.0 45.0)
           (-30.0 30.0)
           (-30.0 30.0)
  end
  begin
     id 15 
     name upperneck
     direction 0.118062 0.961438 -0.248392   
     length 2.22728   
     axis 0 -0 0   XYZ
    dof rx ry rz
    limits (-20.0 45.0)
           (-30.0 30.0)
           (-30.0 30.0)
  end
  begin
     id 16
     name head
     direction 0.0431885 0.9954 -0.085514  
     length 2.28786  
     axis 0 -0 0   XYZ
    dof rx ry rz
    limits (-20.0 45.0)
           (-30.0 30.0)
           (-30.0 30.0)
  end
  begin
     id 17 
     name lclavicle
     direction 0.912126 0.409548 0.0172323  
     length 4.31571  
     axis 0 -0 0   XYZ
    dof ry rz
    limits (-20.0 10.0)
           (0.0 20.0)
  end
  begin
     id 18 
     name lhumerus
     direction 1 -4.48977e-011 1.93091e-027   
     length 5.13658   
     axis 180 -30 -90   XYZ
    dof rx ry rz
    limits (-60.0 90.0)
           (-90.0 90.0)
           (-90.0 90.0)
  end
  begin
     id 19
     name lradius
     direction 1 -4.48916e-011 6.84018e-027   
     length 3.22473   
     axis 180 -30 -90   XYZ
    dof rx
    limits (-10.0 170.0)
  end
  begin
     id 20
     name lwrist
     direction 1 -4.48987e-011 7.01981e-027   
     length 1.61236   
     axis -4.37994e-015 90 90   XYZ
    dof ry
    limits (-180.0 0.0)
 end
  begin
     id 21 
     name lhand
     direction 1 -4.49037e-011 1.40335e-026   
     length 0.936406   
     axis -8.96029e-015 90 90   XYZ
    dof rx rz
    limits (-90.0 90.0)
           (-45.0 45.0)
  end
  begin
     id 22 
     name lfingers
     direction 1 -4.48886e-011 2.8104e-026   
     length 0.754955   
     axis -1.79203e-014 90 90   XYZ
    dof rx
    limits (0.0 90.0)
  end
  begin
     id 23
     name lthumb
     direction 0.707107 -6.34937e-011 0.707107   
     length 1.08397   
     axis -90 45 -4.48555e-014   XYZ
    dof rx rz
    limits (-45.0 45.0)
           (-45.0 45.0)
  end
  begin
     id 24 
     name rclavicle
     direction -0.947962 0.317997 0.0156638   
     length 4.86918  
     axis 0 -0 0   XYZ 
    dof ry rz
    limits (-10.0 20.0)
           (-20.0 0.0)
  end
  begin
     id 25 
     name rhumerus
     direction -1 -4.48951e-011 2.80534e-018  
     length 5.60911   
     axis 180 30 90   XYZ
    dof rx ry rz
    limits (-90.0 60.0)
           (-90.0 90.0)
           (-90.0 90.0)
  end
  begin
     id 26 
     name rradius
     direction -1 -4.4898e-011 2.11315e-027   
     length 3.38704   
     axis 180 30 90   XYZ
    dof rx
    limits (-10.0 170.0)
  end
  begin
     id 27 
     name rwrist
     direction -1 -4.48933e-011 7.02314e-027   
     length 1.69352   
     axis -4.37994e-015 -90 -90   XYZ
    dof ry
    limits (-180.0 0.0)
  end
  begin
     id 28
     name rhand
     direction -1 -4.48937e-011 1.40458e-026   
     length 0.755878   
     axis -8.96029e-015 -90 -90   XYZ
    dof rx rz
    limits (-90.0 90.0)
           (-45.0 45.0)
  end
  begin
     id 29
     name rfingers
     direction -1 -4.4901e-011 2.80737e-026   
     length 0.609409   
     axis -1.79203e-014 -90 -90   XYZ
    dof rx
    limits (0.0 90.0)
  end
  begin
     id 30
     name rthumb
     direction -0.707107 -6.34968e-011 0.707107   
     length 0.874992   
     axis -90 -45 4.48555e-014   XYZ
    dof rx rz
    limits (-45.0 45.0)
           (-45.0 45.0)
  end
:hierarchy
  begin
    root lhipjoint rhipjoint lowerback
    lhipjoint lfemur
    lfemur ltibia
    ltibia lfoot
    lfoot ltoes
    rhipjoint rfemur
    rfemur rtibia
    rtibia rfoot
    rfoot rtoes
    lowerback upperback
    upperback thorax
    thorax lowerneck lclavicle rclavicle
    lowerneck upperneck
    upperneck head
    lclavicle lhumerus
    lhumerus lradius
    lradius lwrist
    lwrist lhand lthumb
    lhand lfingers
    rclavicle rhumerus
    rhumerus rradius
    rradius rwrist
    rwrist rhand rthumb
    rhand rfingers
  end

#!OML:ASF C:\ViconDB\ViconDB\414\Spring2016\041811\Spring2016.ASF
:FULLY-SPECIFIED
:DEGREES
108
root 10.806 17.7691 19.5533 -165.202 0.472951 181.224
lowerback 5.96636 5.42081 0.526934
upperback 2.83478 7.43082 0.33417
thorax -0.380385 3.78951 -0.405337
lowerneck -9.95918 -2.48016 -9.257
upperneck 17.1393 -4.83386 12.7811
head 7.39427 -2.07317 5.28851
rclavicle 1.04163e-013 -3.97569e-015
rhumerus -21.3122 17.2435 -76.1997
rradius 128.82
rwrist 4.17656
rhand -40.5769 -13.9919
rfingers 7.12502
rthumb -13.5239 -43.5327
lclavicle 1.04163e-013 -3.97569e-015
lhumerus -93.2379 -19.0402 104.394
lradius 75.2408
lwrist 1.62446
lhand -34.7 16.2371
lfingers 7.12502
lthumb -7.85526 46.0712
rfemur 8.89897 -2.73227 18.3636
rtibia 22.827
rfoot -148.664 6.29856
rtoes -16.6639
lfemur -52.7039 5.44831 -19.8979
ltibia 59.686
lfoot -11.8334 -7.54039
ltoes -9.7492
109
root 10.7571 17.8109 19.2178 -165.201 0.703854 181.116
lowerback 5.6511 5.43268 0.317617
upperback 2.75742 7.41876 0.165892
thorax -0.289878 3.7771 -0.432622
lowerneck -10.0197 -2.46833 -9.08646
upperneck 17.2309 -4.89013 12.88
head 7.44009 -2.08475 5.28824
rclavicle 2.26615e-014 -1.59028e-014
rhumerus -22.3766 17.1153 -76.5547
rradius 127.89
rwrist 3.45456
rhand -39.5349 -13.8984
rfingers 7.12502
rthumb -12.5194 -43.5033
lclavicle 2.26615e-014 -1.59028e-014
lhumerus -92.1337 -18.6587 103.625
lradius 75.2402
lwrist 2.24205
lhand -34.9169 16.3577
lfingers 7.12502
lthumb -8.06457 46.1838
rfemur 8.25459 -2.63354 18.0113
rtibia 25.0209
rfoot -147.272 4.40183
rtoes -18.3447
lfemur -51.1272 5.54615 -20.127
ltibia 58.7078
lfoot -10.6562 -6.99143
ltoes -9.03746
110
root 10.7196 17.8276 18.8945 -165.204 0.863875 180.915
lowerback 5.4128 5.36891 -0.256414
upperback 2.64525 7.28975 0.10004
thorax -0.336695 3.70184 -0.164267
lowerneck -10.1784 -2.40332 -8.95154
upperneck 17.4954 -4.85628 12.8589
head 7.5466 -2.06078 5.26582
rclavicle 2.28602e-014 -1.19271e-014
rhumerus -23.6135 17.007 -77.0752
rradius 126.678
rwrist 2.69444
rhand -38.9093 -14.1099
rfingers 7.12502
rthumb -11.9162 -43.7508
lclavicle 2.28602e-014 -1.19271e-014
lhumerus -90.7306 -18.0325 102.807
lradius 75.1199
lwrist 2.33863
lhand -34.9007 16.6463
lfingers 7.12502
lthumb -8.0489 46.473
rfemur 7.35178 -2.38247 17.7181
rtibia 27.6353
rfoot -146.098 2.43495
rtoes -20.325
lfemur -49.4022 5.78491 -20.5639
ltibia 57.8778
lfoot -10.8368 -6.93429
ltoes -7.79806
111
root 10.6727 17.8219 18.5643 -165.083 1.15951 180.611
lowerback 4.79198 5.31804 -0.788953
upperback 2.60225 7.18723 -0.0502324
thorax -0.0825815 3.64083 0.039815
lowerneck -10.1638 -2.28833 -8.98491
upperneck 17.4546 -4.72838 13.035
head 7.51935 -1.9921 5.34391
rclavicle 4.65156e-014 -6.75868e-015
rhumerus -24.9357 16.7094 -77.785
rradius 125.182
rwrist 2.25311
rhand -38.1964 -14.2982
rfingers 7.12502
rthumb -11.2287 -43.9777
lclavicle 4.65156e-014 -6.75868e-015
lhumerus -88.9704 -17.5965 101.986
lradius 74.9377
lwrist 3.05656
lhand -34.9049 16.5182
lfingers 7.12502
lthumb -8.05299 46.3447
rfemur 6.11238 -2.3144 17.1151
rtibia 30.6463
rfoot -145.189 0.735832
rtoes -22.728
lfemur -47.577 6.22605 -21.3844
ltibia 57.1468
lfoot -12.8511 -6.38867
ltoes -12.244
112
root 10.6339 17.8149 18.2339 -165.125 1.14638 180.861
lowerback 4.50989 5.19468 -0.734332
upperback 2.49888 7.01654 -0.0639754
thorax -0.0234421 3.55178 0.0273523
lowerneck -10.3173 -2.19537 -8.7721
upperneck 17.6726 -4.66111 12.999
head 7.60429 -1.94839 5.30538
rclavicle 1.80894e-014 -7.55382e-015
rhumerus -26.7081 16.1677 -78.8692
rradius 123.573
rwrist 1.78857
rhand -37.5862 -14.4578
rfingers 7.12502
rthumb -10.6401 -44.1684
lclavicle 1.80894e-014 -7.55382e-015
lhumerus -87.1829 -17.271 101.278
lradius 74.6384
lwrist 2.95289
lhand -34.9768 16.8516
lfingers 7.12502
lthumb -8.12233 46.6755
rfemur 4.76946 -2.21458 17.3184
rtibia 34.1486
rfoot -144.612 -0.860014
rtoes -23.4996
lfemur -45.5969 6.34624 -21.178
ltibia 56.4702
lfoot -14.2596 -6.69404
ltoes -13.8312
113
root 10.5906 17.823 17.9056 -165.171 1.17762 180.82
lowerback 4.5768 5.0359 -0.925862
upperback 2.22907 6.77574 -0.178491
thorax -0.344489 3.42434 0.00349926
lowerneck -10.3161 -2.01564 -8.53365
upperneck 17.8789 -4.47799 12.9005
head 7.64123 -1.86017 5.25256
rclavicle 4.7112e-014 -5.1684e-015
rhumerus -28.6197 15.5791 -80.0753
rradius 121.622
rwrist 1.51075
rhand -37.1934 -14.6854
rfingers 7.12502
rthumb -10.2612 -44.4151
lclavicle 4.7112e-014 -5.1684e-015
lhumerus -85.4009 -16.8263 100.635
lradius 74.2702
lwrist 3.04936
lhand -35.1594 16.9139
lfingers 7.12502
lthumb -8.2986 46.7309
rfemur 3.07993 -2.21842 17.1572
rtibia 38.0265
rfoot -144.133 -2.35216
rtoes -23.2101
lfemur -43.6722 6.20443 -21.2513
ltibia 55.6756
lfoot -15.3765 -7.01596
ltoes -13.9829
114
root 10.5508 17.8188 17.5755 -165.119 1.35673 180.425
lowerback 4.34168 4.88731 -1.49275
upperback 2.07964 6.54397 -0.384221
thorax -0.404234 3.30157 0.128752
lowerneck -10.3618 -1.87727 -8.5098
upperneck 17.895 -4.30945 12.9794
head 7.63534 -1.7733 5.29262
rclavicle -4.96962e-014 1.47101e-014
rhumerus -30.3905 14.7008 -81.2725
rradius 119.391
rwrist 1.57448
rhand -36.685 -14.6149
rfingers 7.12502
rthumb -9.77076 -44.3683
lclavicle -4.96962e-014 1.47101e-014
lhumerus -83.2597 -16.4808 99.9743
lradius 73.7084
lwrist 2.68136
lhand -35.2566 17.1589
lfingers 7.12502
lthumb -8.39242 46.9722
rfemur 0.958397 -2.28041 16.5533
rtibia 42.3408
rfoot -143.754 -4.15721
rtoes -23.3186
lfemur -41.9181 5.84561 -21.6828
ltibia 54.8285
lfoot -16.4697 -6.92921
ltoes -14.0871
